<svg width="350" height="350" viewBox="0 0 350 350" fill="none" xmlns="http://www.w3.org/2000/svg">
<circle cx="175" cy="175" r="175" fill="#D9D9D9"/>
<path fill-rule="evenodd" clip-rule="evenodd" d="M175 300C217.007 300 254.175 279.279 276.839 247.5H267.5V192.5H285V234.422C294.568 216.748 300 196.509 300 175C300 172.482 299.926 169.981 299.779 167.5H165C162.239 167.5 160 165.261 160 162.5V117.5C160 114.739 162.239 112.5 165 112.5H283.277C261.664 75.1374 221.268 50 175 50C156.249 50 138.463 54.1286 122.5 61.5264V162.5H105V71.4233C98.7384 75.6634 92.8817 80.4564 87.5 85.7321V162.5H70V107.149C66.1585 113.082 62.8062 119.36 60 125.928V162.5H50.6172C50.209 166.611 50 170.781 50 175C50 180.939 50.4142 186.782 51.2153 192.5H207.5C210.261 192.5 212.5 194.739 212.5 197.5V242.5C212.5 245.261 210.261 247.5 207.5 247.5H73.1609C95.8251 279.279 132.993 300 175 300ZM240 192.5H222.5V247.5H240V192.5ZM262.5 192.5H245V247.5H262.5V192.5Z" fill="black"/>
</svg>
